<svg width="74" height="37" viewBox="0 0 74 37" fill="none" xmlns="http://www.w3.org/2000/svg">
<path d="M10.0141 19.2288C10.7162 17.8215 11.1597 16.5585 11.1966 15.6925C11.2336 14.7904 10.9749 14.2852 10.2727 14.2852C9.5706 14.2852 8.72062 15.2595 7.87065 16.9194C6.98372 18.5432 6.24461 20.7804 5.76419 23.3424C5.28377 25.724 5.09899 27.889 5.28377 29.5489C5.43159 31.1727 5.94897 32.147 6.8359 32.147C7.575 32.147 8.27716 31.3892 8.72062 30.3067C9.16409 29.1881 9.31191 27.8529 9.01627 26.6982C8.97931 26.4096 9.49669 26.2291 10.1988 26.2291C10.9379 26.2291 11.8249 26.4456 12.564 26.9147C13.34 27.3838 13.9313 28.1416 13.9313 29.2602C14.0422 31.0645 13.2661 32.9769 11.8988 34.3842C10.5314 35.7915 8.64671 36.8019 6.39243 36.8019C4.13815 36.8019 2.36429 35.575 1.29258 33.3378C0.220875 31.1005 -0.0378133 27.8529 0.66434 23.7754C1.51431 19.1927 3.21426 15.8368 5.24681 13.5635C7.27936 11.2902 9.68146 10.1716 11.8618 10.1716C13.5618 10.1716 14.8183 11.0015 15.5574 12.2284C16.2965 13.4913 16.5182 15.0791 16.1117 16.5946C15.7052 17.8576 14.9291 18.6875 13.9683 19.1205C13.0444 19.5896 11.9727 19.7339 11.1966 19.6979C10.4575 19.6257 9.90319 19.4813 10.0141 19.2288Z" fill="white"/>
<path d="M35.7723 35.2865C33.9245 34.9978 32.4463 34.0596 31.4854 32.5802C30.5615 31.1729 30.1181 29.2604 30.5246 27.0592C30.7833 25.3994 31.3376 24.1364 32.0028 23.1621C31.818 23.1621 31.5593 23.1982 31.3746 23.1982C30.5246 23.1982 29.7116 23.1621 28.8616 23.126C29.0094 24.1003 29.0464 25.1107 28.9355 26.3376C28.6399 29.1161 27.5312 31.4615 25.8313 33.0853C24.2422 34.7091 22.0988 35.5391 19.9184 35.2504C18.1076 34.9617 16.7033 34.0596 15.8533 32.5802C14.9664 31.1729 14.6338 29.2243 14.9664 27.0232C15.262 24.9303 16.2968 23.523 17.4793 22.5848C18.6619 21.6827 19.8814 21.2857 20.6205 21.2857C21.877 21.2857 22.5792 21.9353 22.5422 22.6569C22.4314 22.8013 21.8401 23.1621 21.2488 23.7756C20.6205 24.389 19.8814 25.255 19.5488 26.518C19.1423 27.9253 19.2162 29.2965 19.5488 30.1986C19.8814 31.1729 20.5097 31.7141 21.3596 31.7141C22.2096 31.7141 23.0226 31.0646 23.6509 30.1264C24.353 29.1161 24.8335 27.817 24.9074 26.4097C25.0182 25.1829 24.9074 23.6312 24.5748 22.3683L24.5378 22.1878C23.1335 21.6105 22.0618 20.6362 21.6553 19.6619C21.2488 18.6877 21.6183 17.8216 22.9487 17.4247C24.1313 17.0999 25.7573 17.6412 27.0508 19.1207C27.1986 19.3011 27.3464 19.5176 27.4942 19.698C27.9377 19.8424 28.3812 19.9506 28.7877 19.9867C30.0811 20.2393 31.5593 20.3836 32.9267 20.4197C34.2201 20.4558 35.4766 20.4919 36.3266 20.4919H36.3636C37.657 20.528 38.507 21.2496 38.3961 22.0796C38.2483 22.2239 37.5461 22.693 36.844 23.3786C36.1049 24.1003 35.3288 25.1468 35.0332 26.5541C34.7006 28.1057 34.8114 29.4047 35.144 30.3068C35.5505 31.2811 36.2157 31.7502 37.1027 31.7502C37.9896 31.7502 38.9504 30.9203 39.6895 29.6573C40.4286 28.3944 40.946 26.5901 40.946 24.6055C40.946 22.3322 40.2069 20.8888 39.0983 19.9145C38.507 19.3733 37.7679 19.1568 37.0657 19.0485C36.3636 18.9402 35.8092 18.9763 35.6984 18.8681C35.2549 18.6155 35.5136 17.8577 37.0287 16.8834C37.7309 16.4143 38.8396 16.1617 39.8374 16.1617C41.5743 16.1617 43.1264 16.9556 44.1242 18.3268C45.1959 19.6619 45.7872 21.5383 45.7872 23.7756C45.7872 25.9767 45.1959 28.0335 44.309 29.8377C43.3112 31.642 42.0916 33.1214 40.5395 34.0957C39.0613 35.0339 37.4353 35.5391 35.7723 35.2865Z" fill="white"/>
<path d="M57.3173 35.503C54.9891 35.503 53.0674 33.5183 50.924 29.1521C50.887 29.6212 50.7761 30.0903 50.7392 30.379C50.5914 31.245 50.4066 31.8584 50.2218 32.7245C49.7783 34.4926 49.3718 35.2504 48.0784 35.2504C46.9328 35.2504 46.5263 34.7452 46.3784 33.2657C46.2676 31.7502 46.4893 29.2964 46.8219 25.255C46.9697 23.0177 47.3023 20.7444 47.7458 18.5433C48.1893 16.4143 48.7436 14.4296 49.261 13.0224C49.8523 11.6151 50.4435 10.713 50.9979 10.713C51.7739 10.713 52.7348 11.0377 53.4369 11.4707C54.176 11.9398 54.6934 12.5533 54.6565 13.1306C54.6565 13.6719 53.8804 15.5122 53.1782 18.1463C52.55 20.0949 51.9218 22.4404 51.5522 24.858C52.8087 24.1724 53.8434 23.4147 54.7304 22.5126C55.9129 21.2496 56.6521 19.8423 56.7629 18.5794C56.7999 18.1103 57.3173 17.9659 58.0564 18.0742C58.7955 18.2185 59.6085 18.5433 60.3476 19.1206C61.0497 19.698 61.5671 20.3836 61.5671 21.2857C61.5671 22.6208 60.7911 24.0642 59.4237 25.3993C58.5737 26.2293 57.5759 26.9509 56.3195 27.6365C56.5781 28.1056 56.8738 28.9356 57.3173 29.6573C57.7607 30.415 58.389 30.9924 59.1281 30.8481C59.5715 30.7398 60.1628 30.0181 60.828 29.1521C61.4563 28.2861 62.1215 27.1674 62.6388 26.1932C63.1192 25.3632 63.7105 25.3632 63.9692 25.8323C64.2649 26.3736 64.3757 27.384 63.8214 28.6469C63.2671 29.9099 62.4171 31.6419 61.3454 33.0131C60.1998 34.3843 58.9063 35.503 57.3173 35.503Z" fill="white"/>
<path d="M66.4822 31.1366C67.0734 31.1366 67.5539 30.7397 67.8125 30.1984C68.0712 29.6571 68.1082 28.9354 67.9234 28.3942C67.5169 27.2756 66.5191 26.4095 65.5952 25.4353C64.6713 24.461 63.8583 23.5228 63.8583 22.2598C63.8583 20.5999 65.1518 19.3009 66.8887 18.6875C68.6256 18.074 70.732 18.074 72.432 19.0844C73.4667 19.6618 73.7624 20.5278 73.7254 21.3938C73.7254 22.2598 73.3559 23.0898 72.9493 23.631C72.5428 24.2084 72.0994 24.461 71.9885 24.1362C71.8407 23.7393 71.545 23.198 71.1385 22.8011C70.732 22.3681 70.2886 22.0433 69.7712 22.0433C68.6995 22.0433 68.4777 22.8372 69.2538 23.4867C71.7298 25.4713 72.8015 27.2395 72.8015 29.6932C72.8015 31.0283 72.3211 32.5078 71.3233 33.5903C70.2886 34.745 68.7734 35.5389 66.6669 35.5389C65.1148 35.5389 63.8953 34.8894 63.0083 33.9151C62.1214 32.9408 61.641 31.6418 61.4932 30.2345C61.3454 28.8633 61.604 27.4921 62.2323 26.3734C62.7866 25.3631 63.5627 25.2909 64.1909 25.5796C64.7822 25.8683 65.2626 26.5178 65.1148 26.8786C64.7083 27.8529 64.6713 28.8633 64.93 29.6932C65.1887 30.5592 65.7061 31.1366 66.4822 31.1366Z" fill="white"/>
<g clip-path="url(#clip0_2_32)">
<path d="M24.4491 17.2727C24.4491 17.2727 25.3533 12.598 21.1404 8.14122C17.174 3.94192 19.969 0.00012207 19.969 0.00012207C19.969 0.00012207 15.756 4.8729 18.8387 8.45815C21.7775 11.8849 24.5108 14.1629 24.4491 17.2727Z" fill="white"/>
<path d="M24.7357 20.3432C24.7357 20.3432 24.4686 17.4116 20.9544 15.1733C17.3374 12.8755 18.3238 9.62701 18.3238 9.62701C18.3238 9.62701 16.5564 13.7273 19.4952 15.7081C22.1258 17.4908 24.2425 18.501 24.7357 20.3432Z" fill="white"/>
</g>
<defs>
<clipPath id="clip0_2_32">
<rect width="7.02845" height="20.3429" fill="white" transform="translate(17.7073 6.10352e-05)"/>
</clipPath>
</defs>
</svg>
